<?xml version="1.0" encoding="UTF-8" standalone="no"?>
<!DOCTYPE svg PUBLIC "-//W3C//DTD SVG 1.1//EN" "http://www.w3.org/Graphics/SVG/1.1/DTD/svg11.dtd">
<svg width="100%" height="100%" viewBox="0 0 512 512" version="1.1" xmlns="http://www.w3.org/2000/svg" xmlns:xlink="http://www.w3.org/1999/xlink" xml:space="preserve" xmlns:serif="http://www.serif.com/" style="fill-rule:evenodd;clip-rule:evenodd;stroke-linecap:round;stroke-linejoin:round;stroke-miterlimit:1.5;">
    <g transform="matrix(1.084349,0,0,1.042008,-28.688948,5.532303)">
        <path d="M461.972,163.023L461.972,317.717C461.972,328.39 453.646,337.054 443.39,337.054L81.697,337.054C71.442,337.054 63.116,328.39 63.116,317.717L63.116,163.023C63.116,152.351 71.442,143.686 81.697,143.686L443.39,143.686C453.646,143.686 461.972,152.351 461.972,163.023Z" style="fill:rgb(247,247,249);stroke:rgb(25,25,30);stroke-width:28.21px;"/>
    </g>
    <g transform="matrix(1.55724,0,0,1.042008,-178.46452,-17.141196)">
        <path d="M197.795,101.427L347.111,101.427" style="fill:none;stroke:rgb(25,25,30);stroke-width:22.64px;"/>
    </g>
    <g transform="matrix(1.55724,0,0,1.042008,-178.46452,317.765992)">
        <path d="M197.795,101.427L347.111,101.427" style="fill:none;stroke:rgb(25,25,30);stroke-width:22.64px;"/>
    </g>
</svg>
